<svg id="Capa_1" enable-background="new 0 0 512 512" height="512" viewBox="0 0 512 512" width="512" xmlns="http://www.w3.org/2000/svg" xmlns:xlink="http://www.w3.org/1999/xlink"><linearGradient id="SVGID_1_" gradientUnits="userSpaceOnUse" x1="256" x2="256" y1="512" y2="0"><stop offset="0" stop-color="#c3ffe8"/><stop offset=".9973" stop-color="#f0fff4"/></linearGradient><linearGradient id="SVGID_2_" gradientUnits="userSpaceOnUse" x1="256" x2="256" y1="407" y2="105"><stop offset="0" stop-color="#9cffac"/><stop offset="1" stop-color="#00b59c"/></linearGradient><g><g><circle cx="256" cy="256" fill="url(#SVGID_1_)" r="256"/></g><g><g><path d="m202.75 255.926c0 11.572 7.442 21.345 17.75 25.026v-50.052c-10.308 3.681-17.75 13.454-17.75 25.026zm0-106.654v31.55c-2.617.946-5.148 2.005-7.61 3.186l-22.326-22.358c-3.467-3.472-9.083-3.472-12.55 0l-25.03 25.066c-3.467 3.472-3.465 9.098 0 12.568l22.326 22.358c-1.179 2.456-2.236 4.991-3.189 7.621h-31.496c-4.906 0-8.875 3.975-8.875 8.888v35.551c0 4.913 3.969 8.888 8.875 8.888h31.496c.953 2.63 2.011 5.164 3.189 7.621l-22.326 22.358c-3.467 3.472-3.465 9.098 0 12.568l25.03 25.066c3.467 3.472 9.083 3.472 12.55 0l22.326-22.358c2.461 1.18 4.992 2.239 7.61 3.185v31.55c0 4.913 3.969 8.888 8.875 8.888h8.875v-72.001c-20.234-4.129-35.5-22.08-35.5-43.539s15.266-39.41 35.5-43.54v-72.001h-8.875c-4.906-.002-8.875 3.973-8.875 8.885zm57.982 236.516c17.89-9.168 32.593-34.678 40.969-67.648h-63.451v69.357c7.647 2.383 15.184 2.02 22.482-1.709zm48.518-129.862c0-15.383-1.339-30.377-3.769-44.439h-67.231v88.877h67.265c2.409-14.051 3.735-29.037 3.735-44.438zm-51.031-131.025c-6.547-2.724-13.215-3.006-19.969-.896v69.707h63.407c-8.83-34.587-24.617-60.988-43.438-68.811zm61.901 68.81h64.338c-23.309-51.385-74.443-87.425-134.066-88.711 4.931.344 9.826 1.478 14.622 3.479 25.228 10.479 45.18 42.69 55.106 85.232zm-51.31 207.899c-5.679 2.921-12.96 5.3-21.335 5.39 60.878-.142 113.291-36.63 136.983-88.86h-64.521c-9.358 40.264-27.498 71.368-51.127 83.47zm122.509-190.123h-67.798c2.228 14.088 3.479 28.979 3.479 44.439 0 15.507-1.333 30.344-3.541 44.438h67.859c4.329-14.057 6.681-28.976 6.681-44.438s-2.351-30.382-6.68-44.439z" fill="url(#SVGID_2_)"/></g></g></g></svg>