<svg id="Capa_1" enable-background="new 0 0 512 512" height="512" viewBox="0 0 512 512" width="512" xmlns="http://www.w3.org/2000/svg" xmlns:xlink="http://www.w3.org/1999/xlink"><linearGradient id="SVGID_1_" gradientUnits="userSpaceOnUse" x1="256" x2="256" y1="512" y2="0"><stop offset="0" stop-color="#c3ffe8"/><stop offset=".9973" stop-color="#f0fff4"/></linearGradient><linearGradient id="SVGID_2_" gradientUnits="userSpaceOnUse" x1="256" x2="256" y1="407" y2="105"><stop offset="0" stop-color="#9cffac"/><stop offset="1" stop-color="#00b59c"/></linearGradient><g><g><circle cx="256" cy="256" fill="url(#SVGID_1_)" r="256"/></g><g><g><path d="m256.087 175.934c-14.659 0-26.583 11.932-26.583 26.6s11.924 26.6 26.583 26.6 26.583-11.932 26.583-26.6-11.925-26.6-26.583-26.6zm0 35.467c-4.893 0-8.861-3.97-8.861-8.867 0-4.898 3.968-8.867 8.861-8.867s8.861 3.969 8.861 8.867c-.001 4.897-3.968 8.867-8.861 8.867zm97.469-8.867c0-53.867-43.639-97.534-97.469-97.534s-97.469 43.667-97.469 97.534c0 53.866 43.639 97.534 97.469 97.534s97.469-43.668 97.469-97.534zm-44.304 8.867h-9.756c-1.151 5.65-3.405 10.894-6.484 15.544l6.93 6.935c3.461 3.464 3.461 9.075 0 12.538-3.461 3.464-9.068 3.464-12.53 0l-6.93-6.935c-4.647 3.083-9.886 5.336-15.534 6.488v9.764c0 4.901-3.963 8.867-8.861 8.867s-8.861-3.966-8.861-8.867v-9.764c-5.647-1.152-10.887-3.405-15.534-6.488l-6.93 6.935c-3.461 3.464-9.068 3.464-12.53 0-3.461-3.463-3.461-9.074 0-12.538l6.93-6.935c-3.079-4.65-5.334-9.894-6.484-15.544h-9.756c-4.898 0-8.861-3.966-8.861-8.867s3.963-8.867 8.861-8.867h9.756c1.151-5.65 3.405-10.894 6.484-15.544l-6.93-6.935c-3.461-3.464-3.461-9.075 0-12.538 3.461-3.464 9.069-3.464 12.53 0l6.93 6.935c4.647-3.083 9.886-5.336 15.534-6.488v-9.764c0-4.901 3.963-8.867 8.861-8.867s8.861 3.966 8.861 8.867v9.764c5.647 1.152 10.887 3.405 15.534 6.488l6.93-6.935c3.461-3.464 9.069-3.464 12.53 0s3.461 9.074 0 12.538l-6.93 6.935c3.079 4.65 5.334 9.894 6.484 15.544h9.756c4.898 0 8.861 3.966 8.861 8.867s-3.964 8.867-8.861 8.867zm78.398 156.328-51.44-82.554c-17.076 16.581-39.248 27.848-63.912 31.349l53.707 86.292c2.009 3.227 5.808 4.754 9.363 3.992 3.652-.771 6.421-3.749 6.94-7.438l4.552-32.263 29.628 13.395c3.548 1.585 7.753.701 10.315-2.243 2.577-2.936 2.923-7.214.847-10.53zm-263.3 0c-2.077 3.316-1.731 7.594.848 10.529 2.544 2.944 6.75 3.827 10.315 2.243l29.628-13.395 4.552 32.263c.519 3.697 3.288 6.667 6.94 7.438 3.553.762 7.353-.764 9.363-3.992l53.721-86.315c-24.654-3.535-46.81-14.822-63.864-31.424z" fill="url(#SVGID_2_)"/></g></g></g></svg>