<?xml version="1.0" standalone="no"?>
<!DOCTYPE svg PUBLIC "-//W3C//DTD SVG 1.1//EN" "http://www.w3.org/Graphics/SVG/1.1/DTD/svg11.dtd" >
<svg xmlns="http://www.w3.org/2000/svg">
<metadata></metadata>
<defs>
<font id="siemens_sansblack" horiz-adv-x="1294" >
<font-face units-per-em="2048" ascent="1638" descent="-410" />
<missing-glyph horiz-adv-x="512" />
<glyph unicode="&#xfb01;" horiz-adv-x="1415" d="M49 823v226h166v67q0 214 86.5 311t276.5 97q109 0 231 -35l-25 -234q-74 27 -122 27q-138 0 -138 -217v-16h234v-226h-234v-823h-309v823h-166zM924 1366q0 76 51.5 127t128.5 51q78 0 129 -51t51 -129t-51 -129t-129 -51q-79 0 -129.5 51t-50.5 131zM948 0v1049h309 v-1049h-309z" />
<glyph unicode="&#xfb02;" horiz-adv-x="1421" d="M49 823v226h166v67q0 214 86.5 311t276.5 97q109 0 231 -35l-25 -234q-74 27 -122 27q-138 0 -138 -217v-16h234v-226h-234v-823h-309v823h-166zM950 0v1497h310v-1497h-310z" />
<glyph horiz-adv-x="2048" />
<glyph horiz-adv-x="2048" />
<glyph unicode="&#xd;" horiz-adv-x="2048" />
<glyph unicode=" "  horiz-adv-x="512" />
<glyph unicode="&#x09;" horiz-adv-x="512" />
<glyph unicode="&#xa0;" horiz-adv-x="512" />
<glyph unicode="!" horiz-adv-x="743" d="M205 168q0 80 54 133t136 53t135.5 -53.5t53.5 -136.5q0 -82 -53.5 -135.5t-135.5 -53.5q-84 0 -137 54t-53 139zM240 1417h309l-19 -948h-272z" />
<glyph unicode="&#x22;" horiz-adv-x="923" d="M94 1497h309l-10 -579h-289zM520 1497h309l-10 -579h-289z" />
<glyph unicode="#" d="M55 373v225h215l31 209h-176v225h211l59 385h250l-59 -385h213l59 385h250l-59 -385h190v-225h-225l-31 -209h186v-225h-221l-57 -373h-250l57 373h-213l-57 -373h-250l58 373h-181zM520 598h213l31 209h-213z" />
<glyph unicode="$" d="M78 66l49 266q196 -109 430 -109v369q-203 62 -281 104q-98 54 -144 132t-46 192q0 135 63.5 233t180.5 144q84 34 243 43v176h140v-176q189 -9 407 -74l-59 -256q-161 65 -348 80v-340q233 -59 329 -115q83 -51 122.5 -129t39.5 -192q0 -200 -124.5 -306t-383.5 -128 v-183h-139v178q-154 2 -259.5 22t-219.5 69zM408 1040q0 -63 35.5 -96t129.5 -59v301q-165 -15 -165 -146zM696 227q97 8 142 47t45 117q0 67 -38.5 101t-148.5 63v-328z" />
<glyph unicode="%" horiz-adv-x="1859" d="M76 1032q0 192 90.5 295t259.5 103t258.5 -103.5t89.5 -298.5t-90 -298t-260 -103t-259 103.5t-89 301.5zM301 1030q0 -233 125 -233q60 0 91.5 59t31.5 172t-31.5 172.5t-91.5 59.5t-92.5 -60t-32.5 -170zM549 -33l563 1483h197l-564 -1483h-196zM1083 393q0 192 91 295 t260 103t258.5 -103.5t89.5 -298.5t-90 -298t-260 -103t-259.5 103.5t-89.5 301.5zM1309 391q0 -233 125 -233q60 0 91 59t31 172t-31 172.5t-91 59.5t-92.5 -60t-32.5 -170z" />
<glyph unicode="&#x26;" horiz-adv-x="1474" d="M86 414q0 137 66.5 225.5t214.5 148.5q-88 94 -120 158t-32 146q0 163 121 256.5t330 93.5q221 0 339.5 -93t118.5 -264q0 -258 -311 -362l229 -238q39 52 65.5 139t27.5 175h278q-2 -142 -49 -277.5t-131 -234.5l278 -287h-391l-104 106q-91 -71 -184 -101t-222 -30 q-239 0 -381.5 119t-142.5 320zM406 414q0 -90 62 -146.5t161 -56.5q57 0 104.5 19.5t100.5 64.5l-297 313q-131 -69 -131 -194zM528 1069q0 -99 134 -192l18 8q80 37 113.5 77.5t33.5 98.5q0 66 -41 105.5t-110 39.5q-66 0 -107 -38t-41 -99z" />
<glyph unicode="'" horiz-adv-x="497" d="M94 1497h309l-10 -579h-289z" />
<glyph unicode="(" horiz-adv-x="917" d="M162 621q0 360 207 649q60 85 123 145.5t182 151.5l174 -187q-202 -166 -292.5 -345t-90.5 -414q0 -236 90.5 -416t292.5 -346l-174 -187q-119 91 -182 151.5t-123 145.5q-207 289 -207 652z" />
<glyph unicode=")" horiz-adv-x="917" d="M70 -141q203 167 293 346.5t90 415.5q0 235 -90 413.5t-293 345.5l174 187q115 -87 178 -148.5t127 -148.5q207 -293 207 -649q0 -359 -207 -652q-64 -87 -127 -148.5t-178 -148.5z" />
<glyph unicode="*" d="M227 1061l70 229l272 -127l-43 295h242l-41 -295l272 127l70 -229l-291 -47l201 -217l-201 -140l-131 267l-131 -267l-199 140l199 217z" />
<glyph unicode="+" d="M123 406v237h393v406h262v-406h393v-237h-393v-406h-262v406h-393z" />
<glyph unicode="," horiz-adv-x="647" d="M41 -250l178 594h340l-229 -594h-289z" />
<glyph unicode="-" horiz-adv-x="813" d="M94 461v237h625v-237h-625z" />
<glyph unicode="." horiz-adv-x="647" d="M135 168q0 80 54.5 133t136.5 53t135 -53.5t53 -136.5q0 -82 -53 -135.5t-135 -53.5q-85 0 -138 54t-53 139z" />
<glyph unicode="/" horiz-adv-x="839" d="M51 -55l436 1491h291l-436 -1491h-291z" />
<glyph unicode="0" d="M94 717q0 365 137.5 545t415.5 180q334 0 467 -260q86 -165 86 -473q0 -186 -29 -314t-92 -217q-143 -203 -432 -203q-163 0 -282 66.5t-185 194.5q-86 168 -86 481zM414 715q0 -254 56 -372t177 -118q120 0 177 117.5t57 366.5t-57 366t-177 117t-176.5 -116t-56.5 -361 z" />
<glyph unicode="1" d="M147 1151l453 266h274v-1417h-309v1085l-274 -172z" />
<glyph unicode="2" d="M106 0v240q304 256 451 397q150 144 203 222t53 155q0 79 -65.5 128.5t-169.5 49.5q-152 0 -379 -96l-80 247q250 99 495 99q249 0 384 -108t135 -306q0 -87 -24 -159t-92 -163t-175.5 -195.5t-288.5 -260.5h592v-250h-1039z" />
<glyph unicode="3" d="M84 55l70 248q174 -80 370 -80q138 0 211.5 51t73.5 146q0 54 -28.5 96.5t-80.5 65.5q-72 34 -233 34q-62 0 -160 -4v234q41 -2 94 -2q206 0 300 42.5t94 137.5q0 82 -63.5 125t-182.5 43q-147 0 -352 -76l-68 246q230 80 467 80q253 0 385.5 -100t132.5 -291 q0 -140 -72 -219.5t-221 -102.5q156 -23 231.5 -102.5t75.5 -220.5q0 -99 -40.5 -184.5t-112.5 -141.5q-142 -107 -418 -107q-262 0 -473 82z" />
<glyph unicode="4" d="M37 322v249l614 846h375v-866h191v-229h-191v-322h-309v322h-680zM332 551h393v567z" />
<glyph unicode="5" d="M94 57l80 250q186 -82 356 -82q164 0 238 80q61 64 61 162q0 114 -84 168.5t-256 54.5q-76 0 -133.5 -7t-181.5 -30l29 764h897v-250h-596l-8 -245q57 6 118 6q264 0 399.5 -117t135.5 -346q0 -235 -143 -363q-75 -67 -175.5 -97t-252.5 -30q-273 0 -484 82z" />
<glyph unicode="6" d="M113 580q0 222 62 403.5t175 288.5q91 88 209 129t279 41q116 0 260 -25l-31 -262q-123 37 -225 37q-170 0 -272 -98.5t-115 -276.5q71 66 143.5 95.5t167.5 29.5q203 0 316.5 -120.5t113.5 -336.5q0 -241 -142 -375.5t-397 -134.5q-269 0 -406.5 153t-137.5 452z M432 463q0 -116 60 -181t167 -65q101 0 160.5 67.5t59.5 184.5q0 109 -55.5 169t-155.5 60q-106 0 -171 -64.5t-65 -170.5z" />
<glyph unicode="7" d="M121 1167v250h1034v-235l-623 -1182h-344l623 1167h-690z" />
<glyph unicode="8" d="M94 401q0 126 61 206.5t199 135.5q-121 60 -175 133t-54 177q0 180 140 284.5t382 104.5q240 0 380 -104.5t140 -284.5q0 -106 -52.5 -177.5t-176.5 -132.5q138 -55 199 -135.5t61 -206.5q0 -201 -145 -313.5t-406 -112.5q-262 0 -407.5 112.5t-145.5 313.5zM414 397 q0 -85 63 -134.5t170 -49.5q105 0 168.5 50t63.5 134q0 166 -244 228q-221 -62 -221 -228zM438 1053q0 -145 209 -201l17 4q85 20 137.5 73.5t52.5 119.5q0 73 -55 114t-152 41q-96 0 -152.5 -41t-56.5 -110z" />
<glyph unicode="9" d="M98 932q0 241 142 375.5t397 134.5q269 0 407 -152.5t138 -451.5q0 -222 -62 -404t-176 -289q-91 -88 -208.5 -129t-278.5 -41q-116 0 -260 25l30 262q123 -37 226 -37q170 0 272 98.5t115 276.5q-71 -66 -144 -95.5t-168 -29.5q-203 0 -316.5 120.5t-113.5 336.5z M416 948q0 -109 55.5 -169t155.5 -60q106 0 170.5 64.5t64.5 170.5q0 115 -60.5 180.5t-166.5 65.5q-102 0 -160.5 -67.5t-58.5 -184.5z" />
<glyph unicode=":" horiz-adv-x="647" d="M154 168q0 80 54 133t136 53t135 -53.5t53 -136.5q0 -82 -53 -135.5t-135 -53.5q-84 0 -137 54t-53 139zM154 887q0 80 54 133t136 53t135 -53.5t53 -136.5q0 -82 -53 -135.5t-135 -53.5q-84 0 -137 54t-53 139z" />
<glyph unicode=";" horiz-adv-x="647" d="M8 -250l178 594h340l-229 -594h-289zM154 887q0 80 54 133t136 53t135 -53.5t53 -136.5q0 -82 -53 -135.5t-135 -53.5q-84 0 -137 54t-53 139z" />
<glyph unicode="&#x3c;" d="M117 422v205l1048 446v-274l-645 -275l645 -274v-275z" />
<glyph unicode="=" d="M123 197v237h1048v-237h-1048zM123 614v238h1048v-238h-1048z" />
<glyph unicode="&#x3e;" d="M129 -25v275l645 274l-645 275v274l1049 -446v-205z" />
<glyph unicode="?" horiz-adv-x="997" d="M80 1327q120 61 224 88t220 27q213 0 333 -96t120 -265q0 -104 -51.5 -179t-182.5 -161q-71 -47 -98.5 -74t-37 -58.5t-9.5 -96.5v-41h-295v88q0 59 3 90t10 60t28.5 52t47.5 44.5t79 58.5q110 77 143 114.5t33 88.5q0 64 -46 101.5t-124 37.5q-125 0 -309 -102zM262 168 q0 80 54.5 133t136.5 53t135 -53.5t53 -136.5q0 -82 -53 -135.5t-135 -53.5q-85 0 -138 54t-53 139z" />
<glyph unicode="@" horiz-adv-x="1699" d="M51 709q0 219 103 385.5t291.5 257t437.5 90.5q347 0 557.5 -174t210.5 -461q0 -212 -119.5 -351t-302.5 -139q-87 0 -134.5 34t-62.5 106q-89 -140 -270 -140q-152 0 -237 83t-85 231q0 202 140.5 330.5t361.5 128.5q80 0 170.5 -14.5t149.5 -37.5l-64 -389 q-8 -52 -8 -88q0 -63 57 -63q78 0 134.5 95t56.5 226q0 101 -37 184t-105 134q-75 57 -182.5 88.5t-226.5 31.5q-279 0 -451 -153t-172 -402q0 -253 169.5 -395.5t469.5 -142.5q188 0 359 49l18 -197q-168 -41 -375 -41q-403 0 -628.5 194t-225.5 540zM686 618 q0 -57 30.5 -88.5t84.5 -31.5q78 0 121 65q28 45 47 168l30 180q-41 9 -59 9q-101 0 -177.5 -91t-76.5 -211z" />
<glyph unicode="A" horiz-adv-x="1458" d="M12 0l541 1417h334l559 -1417h-338l-123 338h-534l-121 -338h-318zM535 578h366l-110 307q-39 109 -74 221q-22 -84 -72 -221z" />
<glyph unicode="B" horiz-adv-x="1296" d="M168 0v1417h510q150 0 228 -17t138 -63q63 -47 99.5 -127.5t36.5 -171.5q0 -239 -213 -313q235 -74 235 -324q0 -99 -38 -182.5t-107 -134.5q-60 -44 -141.5 -64t-202.5 -20h-545zM479 229h152q69 0 104.5 6t65.5 21q36 20 57 63t21 97q0 51 -21.5 94t-58.5 68 q-53 34 -164 34h-156v-383zM479 823h148q73 0 113.5 8.5t68.5 28.5q55 46 55 139q0 96 -61 148q-31 23 -72.5 32t-120.5 9h-131v-365z" />
<glyph unicode="C" horiz-adv-x="1292" d="M94 696q0 349 187 547.5t516 198.5q121 0 221.5 -22.5t226.5 -78.5l-106 -241q-168 92 -324 92q-184 0 -287.5 -127.5t-103.5 -353.5q0 -228 109 -357t301 -129q87 0 159.5 23.5t177.5 85.5l93 -254q-126 -61 -220 -83t-231 -22q-179 0 -307.5 46t-224.5 143 q-187 193 -187 532z" />
<glyph unicode="D" horiz-adv-x="1458" d="M168 0v1417h393q232 0 369 -38t237 -130q197 -182 197 -540q0 -213 -69 -366.5t-201 -236.5q-95 -59 -219 -82.5t-336 -23.5h-371zM487 250h62q217 0 323 72q77 51 119.5 153.5t42.5 237.5q0 116 -35 213t-96 151q-59 53 -132 71.5t-222 18.5h-62v-917z" />
<glyph unicode="E" horiz-adv-x="1200" d="M168 0v1417h897v-250h-578v-323h549v-250h-549v-344h609v-250h-928z" />
<glyph unicode="F" horiz-adv-x="1163" d="M168 0v1417h901v-250h-582v-323h553v-250h-553v-594h-319z" />
<glyph unicode="G" horiz-adv-x="1503" d="M94 692q0 202 67 357.5t197 253.5q178 139 482 139q265 0 495 -96l-108 -250q-107 54 -188.5 75t-178.5 21q-211 0 -323.5 -126t-112.5 -361q0 -220 113 -350t305 -130q99 0 184 33v285h-244v250h553v-723q-165 -57 -267.5 -76t-238.5 -19q-358 0 -542 187 q-193 193 -193 530z" />
<glyph unicode="H" horiz-adv-x="1492" d="M168 0v1417h319v-569h519v569h319v-1417h-319v598h-519v-598h-319z" />
<glyph unicode="I" horiz-adv-x="655" d="M168 0v1417h319v-1417h-319z" />
<glyph unicode="J" horiz-adv-x="866" d="M4 18l27 263q104 -48 180 -48q104 0 149 70q18 26 24.5 69.5t6.5 139.5v905h320v-835q0 -230 -16.5 -319.5t-73.5 -156.5q-107 -131 -349 -131q-155 0 -268 43z" />
<glyph unicode="K" horiz-adv-x="1396" d="M168 0v1417h319v-659l525 659h360l-534 -655l555 -762h-381l-525 739v-739h-319z" />
<glyph unicode="L" horiz-adv-x="1087" d="M168 0v1417h319v-1167h609v-250h-928z" />
<glyph unicode="M" horiz-adv-x="1935" d="M168 0v1417h473l246 -766q45 -146 82 -286q54 200 82 286l247 766h469v-1417h-307v1147q-30 -119 -78 -270l-284 -877h-273l-276 854l-29 86q-4 12 -24 80l-17 61q-2 14 -16 66v-1147h-295z" />
<glyph unicode="N" horiz-adv-x="1540" d="M168 0v1417h352l377 -637q100 -173 174 -334q-6 82 -6 271v700h307v-1417h-346l-354 594q-109 187 -203 379q6 -119 6 -338v-635h-307z" />
<glyph unicode="O" horiz-adv-x="1554" d="M94 717q0 171 55 316t158 243q175 166 471 166q342 0 520 -223q162 -201 162 -510q0 -361 -213 -568q-172 -166 -471 -166q-342 0 -520 224q-162 200 -162 518zM424 715q0 -227 94.5 -358.5t257.5 -131.5t258.5 130.5t95.5 353.5t-95.5 353t-258.5 130 q-161 0 -256.5 -129.5t-95.5 -347.5z" />
<glyph unicode="P" horiz-adv-x="1200" d="M168 0v1417h399q188 0 282.5 -19t164.5 -73q74 -56 113.5 -145t39.5 -199q0 -107 -38.5 -196.5t-110.5 -147.5q-66 -51 -158 -73.5t-239 -22.5h-134v-541h-319zM479 780h92q84 0 120 5.5t71 23.5q86 42 86 162q0 117 -82 170q-37 22 -77 29.5t-118 7.5h-92v-398z" />
<glyph unicode="Q" horiz-adv-x="1554" d="M94 709q0 360 213 567q172 166 471 166q342 0 520 -223q162 -201 162 -510q0 -311 -164 -514q-65 -81 -188 -150q78 -81 287 -195l-160 -227q-151 73 -265 153t-241 201q-123 7 -204 33t-158 82q-131 95 -202 255.5t-71 361.5zM424 715q0 -227 94.5 -358.5t257.5 -131.5 t258.5 130.5t95.5 353.5t-95.5 353t-258.5 130q-161 0 -256.5 -129.5t-95.5 -347.5z" />
<glyph unicode="R" horiz-adv-x="1302" d="M168 0v1417h512q133 0 215 -18.5t141 -61.5q67 -50 103.5 -128t36.5 -173q0 -136 -69.5 -229.5t-195.5 -128.5q42 -17 67 -41t52.5 -73t81.5 -167l178 -397h-340l-114 270q-78 187 -130 244t-145 57h-74v-571h-319zM479 811h111q135 0 200.5 46.5t65.5 141.5t-61 140 q-33 22 -77 30.5t-128 8.5h-111v-367z" />
<glyph unicode="S" horiz-adv-x="1183" d="M94 55l45 273q134 -57 227.5 -80t186.5 -23q97 0 152 45t55 123q0 33 -7.5 53t-37.5 43t-77 45.5t-138 59.5q-128 52 -181 78t-98 59q-125 94 -125 268q0 107 42.5 198.5t119.5 150.5q125 94 334 94q205 0 452 -78l-65 -258q-139 52 -213.5 69t-153.5 17 q-87 0 -136.5 -40.5t-49.5 -109.5q0 -40 17.5 -64.5t65 -50.5t157.5 -71q157 -65 209 -90t96 -59q123 -95 123 -287q0 -217 -135 -331t-390 -114q-134 0 -243.5 18.5t-231.5 61.5z" />
<glyph unicode="T" horiz-adv-x="1169" d="M12 1167v250h1145v-250h-416v-1167h-319v1167h-410z" />
<glyph unicode="U" horiz-adv-x="1476" d="M156 633v784h319v-823q0 -215 49 -281q31 -41 88.5 -64.5t126.5 -23.5q84 0 149 32.5t93 86.5q31 67 31 250v823h309v-784q0 -227 -17.5 -320.5t-74.5 -165.5q-141 -172 -490 -172q-389 0 -518 211q-39 66 -52 154.5t-13 292.5z" />
<glyph unicode="V" horiz-adv-x="1376" d="M-8 1417h332l235 -637q37 -96 79 -221t56 -178q55 179 131 387l244 649h315l-536 -1417h-320z" />
<glyph unicode="W" horiz-adv-x="2004" d="M53 1417h314l145 -631q27 -119 72 -340q40 160 86 320l190 651h307l172 -610q53 -184 91 -344q48 234 75 344l146 610h301l-359 -1417h-309l-176 616q-43 145 -102 381q-48 -179 -107 -372l-190 -625h-312z" />
<glyph unicode="X" horiz-adv-x="1503" d="M33 0l524 727l-498 690h371l330 -463l334 463h364l-514 -698l520 -719h-385l-336 473l-333 -473h-377z" />
<glyph unicode="Y" horiz-adv-x="1353" d="M-20 1417h370l234 -375q58 -96 104 -184q44 85 107 186l231 373h348l-534 -835v-582h-320v582z" />
<glyph unicode="Z" horiz-adv-x="1220" d="M53 0v225l690 942h-665v250h1065v-225l-690 -942h714v-250h-1114z" />
<glyph unicode="[" horiz-adv-x="917" d="M242 -289v1819h508v-240h-218v-1337h218v-242h-508z" />
<glyph unicode="\" horiz-adv-x="839" d="M63 1436h291l437 -1491h-291z" />
<glyph unicode="]" horiz-adv-x="917" d="M168 -47h215v1337h-215v240h506v-1819h-506v242z" />
<glyph unicode="^" d="M49 721l483 696h230l483 -696h-342l-258 377l-254 -377h-342z" />
<glyph unicode="_" horiz-adv-x="1024" d="M-102 -215h1228v-225h-1228v225z" />
<glyph unicode="`" horiz-adv-x="1024" d="M121 1497h368l246 -299h-286z" />
<glyph unicode="a" horiz-adv-x="1206" d="M66 299q0 95 40.5 171.5t114.5 119.5q102 57 324 57q85 0 186 -8v12q0 97 -61 151t-168 54q-124 0 -293 -84l-59 217q184 84 399 84q264 0 391 -133q60 -61 80 -138t20 -239v-291q6 -216 13 -272h-297l-11 117q-78 -78 -152 -110t-181 -32q-163 0 -254.5 86t-91.5 238z M385 307q0 -63 37.5 -101t99.5 -38q117 0 209 135v164q-51 4 -100 4q-246 0 -246 -164z" />
<glyph unicode="b" horiz-adv-x="1282" d="M143 0q11 132 11 360v1137h309v-571q123 147 305 147q200 0 315 -148t115 -407q0 -266 -125 -412q-111 -131 -299 -131q-108 0 -185.5 40.5t-135.5 127.5l-11 -143h-299zM463 373q44 -80 103 -124t122 -44q85 0 138 89.5t53 235.5q0 143 -55.5 228.5t-147.5 85.5 q-58 0 -109 -38t-104 -120v-313z" />
<glyph unicode="c" horiz-adv-x="1021" d="M84 526q0 266 152 418q126 129 364 129q189 0 363 -76l-82 -221q-121 72 -234 72q-118 0 -181 -85t-63 -245q0 -152 69 -232.5t200 -80.5q114 0 223 74l94 -220q-153 -84 -360 -84q-257 0 -401 146t-144 405z" />
<glyph unicode="d" horiz-adv-x="1282" d="M84 518q0 259 115 407t315 148q184 0 305 -147v571h309v-1137q0 -228 11 -360h-299l-11 143q-58 -87 -135.5 -127.5t-185.5 -40.5q-198 0 -311 144.5t-113 398.5zM403 530q0 -146 53 -235.5t138 -89.5q63 0 121 43t104 125v313q-101 158 -213 158q-93 0 -148 -85 t-55 -229z" />
<glyph unicode="e" horiz-adv-x="1228" d="M84 520q0 255 145 406q135 147 396 147q184 0 306 -70.5t173 -207.5q27 -74 36 -149t9 -224h-741q18 -225 274 -225q165 0 334 102l104 -219q-200 -105 -442 -105q-292 0 -443 138.5t-151 406.5zM408 625h430q-4 110 -59 170.5t-150 60.5q-97 0 -156 -62t-65 -169z" />
<glyph unicode="f" horiz-adv-x="813" d="M49 823v226h166v47q0 223 88 325.5t279 102.5q105 0 227 -35l-25 -234q-77 27 -122 27q-72 0 -105 -51.5t-33 -165.5v-16h234v-226h-234v-823h-309v823h-166z" />
<glyph unicode="g" horiz-adv-x="1296" d="M84 549q0 239 117 381.5t315 142.5q208 0 324 -158l8 134h295q-13 -338 -13 -412v-510q0 -189 -19 -274t-77 -154q-133 -164 -483 -164q-226 0 -416 78l82 223q149 -76 303 -76q209 0 271 127q30 61 30 219v66q-64 -76 -135 -109.5t-168 -33.5q-201 0 -317.5 139.5 t-116.5 380.5zM403 545q0 -134 52.5 -210.5t144.5 -76.5q66 0 124.5 45.5t96.5 128.5v227q-29 85 -90 135t-135 50q-91 0 -142 -79.5t-51 -219.5z" />
<glyph unicode="h" horiz-adv-x="1310" d="M162 0v1497h311v-571q75 77 156 112t184 35q213 0 297 -149q26 -46 36.5 -107.5t10.5 -167.5v-649h-309v625q0 97 -19 145q-36 74 -124 74q-124 0 -232 -164v-680h-311z" />
<glyph unicode="i" horiz-adv-x="624" d="M133 1366q0 76 51.5 127t128.5 51q78 0 129.5 -51t51.5 -129t-51.5 -129t-129.5 -51q-79 0 -129.5 51t-50.5 131zM158 0v1049h309v-1049h-309z" />
<glyph unicode="j" horiz-adv-x="659" d="M-82 -434l25 229q76 -22 116 -22q73 0 102 56.5t29 199.5v1020h310v-1043q0 -143 -16.5 -221t-59.5 -133q-88 -117 -289 -117q-96 0 -217 31zM166 1366q0 76 51.5 127t128.5 51q78 0 129 -51t51 -129t-51 -129t-129 -51q-79 0 -129.5 51t-50.5 131z" />
<glyph unicode="k" horiz-adv-x="1193" d="M162 0v1497h309v-889l326 441h346l-361 -455l410 -594h-367l-354 535v-535h-309z" />
<glyph unicode="l" horiz-adv-x="632" d="M162 0v1497h309v-1497h-309z" />
<glyph unicode="m" horiz-adv-x="1908" d="M154 1049h284l11 -148q78 92 157.5 132t184.5 40q216 0 292 -178q88 100 163 139t181 39q202 0 283 -149q25 -46 35 -107.5t10 -167.5v-649h-309v625q0 98 -16 145q-13 35 -42.5 54.5t-68.5 19.5q-110 0 -205 -164v-680h-309v655q0 189 -121 189q-54 0 -109 -42.5 t-102 -121.5v-680h-309v659q0 104 -10 390z" />
<glyph unicode="n" horiz-adv-x="1310" d="M154 1049h284l11 -146q94 96 173 133t191 37q211 0 295 -149q27 -45 38 -106.5t11 -168.5v-649h-309v625q0 97 -19 145q-36 74 -124 74q-124 0 -232 -164v-680h-309v659q0 154 -10 390z" />
<glyph unicode="o" horiz-adv-x="1247" d="M84 530q0 271 164 420q129 123 377 123q277 0 415 -166q123 -147 123 -383q0 -279 -164 -426q-129 -123 -376 -123q-278 0 -416 166q-123 146 -123 389zM403 528q0 -159 57 -243t163 -84q107 0 164 83t57 240t-56.5 240.5t-162.5 83.5t-164 -83.5t-58 -236.5z" />
<glyph unicode="p" horiz-adv-x="1282" d="M143 1049h299l11 -134q75 87 146 122.5t169 35.5q200 0 315 -148.5t115 -406.5q0 -266 -125 -412q-59 -68 -131 -99.5t-168 -31.5q-201 0 -311 152v-567h-309v1071q0 275 -11 418zM463 373q44 -80 103 -124t122 -44q85 0 138 89.5t53 235.5q0 143 -55.5 228.5 t-147.5 85.5q-58 0 -109 -38t-104 -120v-313z" />
<glyph unicode="q" horiz-adv-x="1282" d="M84 518q0 258 115 406.5t315 148.5q98 0 169 -35.5t146 -122.5l11 134h299q-11 -143 -11 -418v-1071h-309v567q-111 -152 -311 -152q-198 0 -311 144.5t-113 398.5zM403 530q0 -146 53 -235.5t138 -89.5q63 0 121 43t104 125v313q-101 158 -213 158q-93 0 -148 -85 t-55 -229z" />
<glyph unicode="r" horiz-adv-x="835" d="M154 1049h292l11 -201q77 215 264 215q49 0 104 -16l-14 -267q-59 13 -102 13q-91 0 -152 -58.5t-86 -167.5v-567h-307v696q0 180 -10 353z" />
<glyph unicode="s" horiz-adv-x="991" d="M84 66l78 229q76 -52 146.5 -75t152.5 -23q147 0 147 104q0 49 -41 72q-19 12 -39 19t-131 44q-100 34 -145 55t-80 52q-80 71 -80 196q0 158 111 246t311 88q92 0 176.5 -17t200.5 -57l-76 -229q-162 84 -291 84q-63 0 -99 -25.5t-36 -68.5q0 -34 25.5 -53.5 t105.5 -47.5q131 -42 187.5 -66.5t99.5 -57.5q100 -76 100 -205q0 -144 -100 -244q-114 -111 -342 -111q-215 0 -381 91z" />
<glyph unicode="t" horiz-adv-x="813" d="M49 823v226h168v225l309 57v-282h232v-226h-232v-422q0 -99 32 -140.5t106 -41.5q34 0 110 21l27 -228q-127 -37 -254 -37q-193 0 -273 117q-32 45 -44.5 114.5t-12.5 194.5v422h-168z" />
<glyph unicode="u" horiz-adv-x="1300" d="M154 399v650h309v-625q0 -100 18 -145q31 -74 121 -74q117 0 225 164v680h310v-660q0 -125 10 -389h-285l-10 145q-92 -95 -170.5 -132.5t-187.5 -37.5q-209 0 -293 150q-26 47 -36.5 107.5t-10.5 166.5z" />
<glyph unicode="v" horiz-adv-x="1185" d="M16 1049h320l182 -484q59 -148 88 -250q34 116 88 258l178 476h297l-409 -1049h-330z" />
<glyph unicode="w" horiz-adv-x="1767" d="M41 1049h303l111 -392q33 -113 75 -321q45 199 84 330l117 383h305l123 -387q46 -150 88 -326q45 194 82 321l115 392h282l-321 -1049h-303l-121 379q-52 159 -104 362q-36 -151 -99 -360l-116 -381h-308z" />
<glyph unicode="x" horiz-adv-x="1226" d="M23 0l423 532l-397 517h354l218 -316l237 316h346l-409 -508l415 -541h-352l-237 336l-254 -336h-344z" />
<glyph unicode="y" horiz-adv-x="1181" d="M8 -420l53 234q80 -35 142 -35q75 0 123.5 53.5t111.5 206.5l-430 1010h328l186 -459q46 -107 90 -240q47 144 90 254l168 445h306l-422 -1022q-74 -177 -112 -250t-85 -127q-105 -117 -291 -117q-134 0 -258 47z" />
<glyph unicode="z" horiz-adv-x="983" d="M53 0v195l471 628h-444v226h829v-203l-465 -621h482v-225h-873z" />
<glyph unicode="{" horiz-adv-x="917" d="M121 524v193q101 5 137 31q25 19 32 48t7 113v244q0 127 17 196t57 107q43 43 104 58.5t184 15.5h154v-215h-108q-69 0 -91 -31t-22 -131v-287q0 -93 -15 -134t-57 -68q-42 -24 -147 -43q75 -13 107 -24t57 -30q32 -28 43.5 -67t11.5 -125v-287q0 -100 22 -131t91 -31 h108v-215h-154q-123 0 -184 15.5t-104 58.5q-40 38 -57 107t-17 196v244q0 91 -9.5 122t-43.5 50q-28 15 -123 20z" />
<glyph unicode="|" horiz-adv-x="647" d="M176 -440v1857h295v-1857h-295z" />
<glyph unicode="}" horiz-adv-x="917" d="M104 -74h109q69 0 91 31t22 131v287q0 93 14.5 135t56.5 68q41 24 148 43q-76 13 -107.5 23.5t-56.5 29.5q-32 28 -43.5 67t-11.5 125v287q0 100 -22 131t-91 31h-109v215h154q123 0 184.5 -15.5t104.5 -58.5q40 -38 57 -107t17 -196v-244q0 -91 9.5 -122t43.5 -50 q28 -15 123 -20v-193q-103 -5 -138 -30q-25 -19 -31.5 -48t-6.5 -114v-244q0 -127 -17 -196t-57 -107q-43 -43 -104.5 -58.5t-184.5 -15.5h-154v215z" />
<glyph unicode="~" d="M80 430q87 156 165 226.5t167 70.5q57 0 104.5 -16.5t188.5 -85.5q80 -38 115 -50t65 -12q47 0 83.5 32t82.5 114l161 -88q-49 -107 -102 -177q-47 -66 -97.5 -94t-119.5 -28q-64 0 -130.5 23t-213.5 95q-52 27 -78.5 36t-54.5 9q-44 0 -79.5 -31.5t-86.5 -117.5z" />
<glyph unicode="&#xa1;" horiz-adv-x="743" d="M205 883q0 83 53 136.5t135 53.5q83 0 137 -53.5t54 -138.5q0 -80 -54.5 -133.5t-136.5 -53.5t-135 53.5t-53 135.5zM240 -369l18 949h272l19 -949h-309z" />
<glyph unicode="&#xa2;" d="M135 866q0 162 59.5 286.5t170.5 193.5q54 32 121 47.5t178 21.5v191h143v-191q151 -11 268 -53l-59 -234q-108 47 -209 58v-621q47 1 108.5 20.5t114.5 49.5l45 -236q-116 -52 -268 -61v-184h-143v180q-267 13 -398 145t-131 387zM455 872q0 -141 51 -214.5t158 -88.5 v617q-47 -8 -75.5 -21t-53.5 -39q-37 -38 -58.5 -106.5t-21.5 -147.5z" />
<glyph unicode="&#xa3;" d="M90 0v244h176q19 43 26 104.5t7 183.5v91h-188v219h188v69q0 170 21.5 251.5t82.5 142.5q131 131 392 131q106 0 194.5 -18.5t218.5 -67.5l-80 -246q-102 44 -170 62t-131 18q-115 0 -165 -67t-50 -222v-53h326v-219h-326v-91q0 -187 -26 -288h602v-244h-1098z" />
<glyph unicode="&#xa4;" d="M20 262l142 144q-80 137 -80 309t80 309l-142 143l156 156l137 -137q143 100 334 100q195 0 336 -100l135 137l158 -156l-143 -143q81 -134 81 -309t-81 -309l143 -144l-158 -156l-135 138q-144 -101 -336 -101q-195 0 -334 101l-137 -138zM332 719q0 -156 92 -252 q44 -47 97 -68.5t128 -21.5q143 0 229.5 92.5t86.5 245.5t-86.5 245.5t-229.5 92.5q-76 0 -128.5 -20.5t-96.5 -69.5q-92 -95 -92 -244z" />
<glyph unicode="&#xa5;" d="M0 1417h362l291 -528l289 528h352l-372 -618h260v-152h-351l-28 -45v-84h375v-151h-375v-367h-311v367h-379v151h379v84l-29 45h-354v152h264z" />
<glyph unicode="&#xa6;" horiz-adv-x="647" d="M176 0v586h295v-586h-295zM176 831v586h295v-586h-295z" />
<glyph unicode="&#xa7;" d="M172 -203l78 242q200 -84 350 -84q154 0 154 96q0 51 -47 78q-27 16 -55.5 28t-145.5 56q-97 36 -143.5 60t-83.5 57q-91 78 -91 207q0 90 39.5 156.5t130.5 129.5q-79 62 -110 119t-31 143q0 167 115 262t319 95q216 0 414 -92l-78 -242q-182 84 -311 84t-129 -94 q0 -50 47 -80q26 -17 51 -27.5t148 -56.5q166 -63 231 -117q41 -35 64.5 -89.5t23.5 -115.5q0 -92 -40 -158.5t-132 -129.5q81 -61 112 -118.5t31 -144.5q0 -86 -36 -159t-101 -119q-115 -78 -319 -78q-238 0 -455 92zM469 600q0 -29 18 -50.5t60 -45.5q42 -23 164 -74 q11 -6 43 -20q77 68 77 137q0 29 -17.5 51t-59.5 45q-48 26 -164 74q-11 6 -43 20q-78 -72 -78 -137z" />
<glyph unicode="&#xa8;" horiz-adv-x="1024" d="M117 1370q0 72 48 119t120 47q73 0 120.5 -47t47.5 -121t-47.5 -121t-120.5 -47q-74 0 -121 47.5t-47 122.5zM571 1370q0 72 48 119t120 47q73 0 120.5 -47t47.5 -121t-47.5 -121t-120.5 -47q-74 0 -121 47.5t-47 122.5z" />
<glyph unicode="&#xa9;" horiz-adv-x="1638" d="M90 719q0 202 95 367t262 258.5t372 93.5q156 0 291.5 -55t231.5 -151t151 -231.5t55 -291.5q0 -155 -55 -290.5t-150.5 -232t-231 -151.5t-290.5 -55q-158 0 -294 55t-232 151.5t-150.5 234t-54.5 298.5zM197 717q0 -187 79 -334.5t221.5 -230t323.5 -82.5 q177 0 319 82.5t222 228.5t80 328q0 183 -80 329t-222.5 228t-320.5 82q-132 0 -247.5 -48t-197.5 -131.5t-129.5 -200.5t-47.5 -251zM455 700q0 182 106.5 286t292.5 104q138 0 260 -46l-43 -157q-79 33 -170 33q-101 0 -157 -57.5t-56 -160.5t59.5 -160t165.5 -57 q81 0 179 45l41 -163q-122 -56 -267 -56q-193 0 -302 103t-109 286z" />
<glyph unicode="&#xaa;" horiz-adv-x="843" d="M104 997q0 64 36.5 112.5t101.5 70.5q68 20 178 20q36 0 67 -2v10q0 46 -30 67t-95 21q-81 0 -190 -32l-12 129q139 37 248 37q172 0 233 -76q26 -32 32.5 -66.5t6.5 -132.5v-149q0 -66 8 -177h-172l-8 62q-51 -42 -94.5 -58t-104.5 -16q-97 0 -151 47.5t-54 132.5z M303 1008q0 -58 72 -58q67 0 112 45v101q-23 2 -43 2q-141 0 -141 -90z" />
<glyph unicode="&#xab;" horiz-adv-x="1267" d="M59 530l406 494l201 -154l-271 -340l271 -340l-201 -155zM578 530l405 494l201 -154l-271 -340l271 -340l-201 -155z" />
<glyph unicode="&#xac;" d="M102 545v237h1018v-665h-262v428h-756z" />
<glyph unicode="&#xad;" horiz-adv-x="813" d="M94 461v237h625v-237h-625z" />
<glyph unicode="&#xae;" horiz-adv-x="1228" d="M84 1022q0 223 151.5 372.5t378.5 149.5q230 0 380.5 -150t150.5 -380q0 -113 -40 -211.5t-110 -168.5t-168 -110.5t-211 -40.5q-233 0 -382.5 151.5t-149.5 387.5zM182 1020q0 -200 121 -327.5t313 -127.5q186 0 308.5 127t122.5 322t-122.5 321.5t-310.5 126.5 q-186 0 -309 -126t-123 -316zM412 735v551h163q153 0 205 -24q35 -17 55.5 -53.5t20.5 -80.5q0 -61 -30.5 -96.5t-98.5 -52.5q39 -12 56.5 -30t39.5 -70l56 -144h-152l-31 88q-24 64 -45.5 83.5t-70.5 19.5h-23v-191h-145zM557 1024h23q52 0 67 2.5t29 13.5q26 20 26 70 q0 40 -23 56t-83 16h-39v-158z" />
<glyph unicode="&#xaf;" horiz-adv-x="1024" d="M139 1257v181h748v-181h-748z" />
<glyph unicode="&#xb0;" horiz-adv-x="872" d="M94 1108q0 146 94.5 238t243.5 92q157 0 251.5 -91.5t94.5 -242.5q0 -149 -95 -241.5t-247 -92.5q-155 0 -248.5 92t-93.5 246zM248 1106q0 -93 49.5 -145t138.5 -52q88 0 138.5 52t50.5 143t-50.5 142.5t-138.5 51.5q-87 0 -137.5 -51.5t-50.5 -140.5z" />
<glyph unicode="&#xb1;" d="M123 0v233h1048v-233h-1048zM123 584v233h393v256h262v-256h393v-233h-393v-256h-262v256h-393z" />
<glyph unicode="&#xb2;" horiz-adv-x="843" d="M115 1368q142 62 297 62q152 0 232.5 -61t80.5 -175q0 -69 -29 -124t-98 -120q-79 -71 -176 -143h309v-168h-606v168q100 60 227 164q79 64 114.5 111.5t35.5 91.5q0 41 -32 63.5t-89 22.5q-45 0 -92 -13t-137 -49z" />
<glyph unicode="&#xb3;" horiz-adv-x="843" d="M102 672l35 170q78 -30 126 -39.5t118 -9.5q127 0 127 84q0 46 -39.5 67t-126.5 21q-37 0 -78 -2v141q35 -2 78 -2q162 0 162 84q0 78 -142 78q-87 0 -196 -35l-29 164q143 37 277 37q156 0 236.5 -55t80.5 -161q0 -70 -35.5 -111t-115.5 -63q89 -22 126 -62.5t37 -117.5 q0 -233 -340 -233q-162 0 -301 45z" />
<glyph unicode="&#xb4;" horiz-adv-x="1024" d="M313 1198l246 299h369l-330 -299h-285z" />
<glyph unicode="&#xb5;" d="M154 -440v1489h309v-619q0 -125 22 -168q35 -65 115 -65q133 0 221 204v648h309v-676q0 -144 11 -373h-293l-8 145q-46 -93 -94.5 -131.5t-120.5 -38.5q-55 0 -90.5 17.5t-79.5 66.5v-499h-301z" />
<glyph unicode="&#xb6;" horiz-adv-x="1486" d="M55 991q0 129 55 225.5t156 147.5q63 31 139.5 42t221.5 11h643v-1659h-289v1409h-221v-1409h-289v817q-204 15 -310 121.5t-106 294.5z" />
<glyph unicode="&#xb7;" horiz-adv-x="647" d="M133 594q0 80 54.5 133t136.5 53t135 -53.5t53 -136.5q0 -82 -53 -135.5t-135 -53.5q-85 0 -138 54t-53 139z" />
<glyph unicode="&#xb8;" horiz-adv-x="1024" d="M197 -379l239 313h340l-297 -313h-282z" />
<glyph unicode="&#xb9;" horiz-adv-x="843" d="M100 1266l277 151h186v-778h-215v575l-168 -98z" />
<glyph unicode="&#xba;" horiz-adv-x="843" d="M111 1126q0 141 82.5 222.5t228.5 81.5q148 0 229.5 -80.5t81.5 -225.5q0 -146 -81.5 -226.5t-229.5 -80.5t-229.5 80.5t-81.5 228.5zM309 1120q0 -153 113 -153q55 0 84 41t29 118q0 74 -29.5 114t-83.5 40q-113 0 -113 -160z" />
<glyph unicode="&#xbb;" horiz-adv-x="1267" d="M84 186l270 342l-270 340l201 156l405 -496l-405 -493zM602 186l270 342l-270 340l201 156l405 -496l-405 -493z" />
<glyph unicode="&#xbc;" horiz-adv-x="1859" d="M92 1266l277 151h186v-778h-215v575l-168 -98zM494 -33l563 1483h196l-561 -1483h-198zM1012 160v155l323 463h289v-469h109v-149h-109v-160h-205v160h-407zM1190 309h240v348z" />
<glyph unicode="&#xbd;" horiz-adv-x="1859" d="M86 1266l276 151h187v-778h-215v575l-168 -98zM467 -33l563 1483h197l-563 -1483h-197zM1087 729q142 62 297 62q152 0 233 -61t81 -175q0 -69 -29 -124t-98 -120q-79 -71 -176 -143h309v-168h-606v168q100 60 227 164q79 64 114.5 111.5t35.5 91.5q0 41 -32 63.5 t-89 22.5q-45 0 -93 -13t-137 -49z" />
<glyph unicode="&#xbe;" horiz-adv-x="1859" d="M102 672l35 170q78 -30 126 -39.5t118 -9.5q127 0 127 84q0 46 -39.5 67t-126.5 21q-37 0 -78 -2v141q35 -2 78 -2q162 0 162 84q0 78 -142 78q-87 0 -196 -35l-29 164q143 37 277 37q156 0 236.5 -55t80.5 -161q0 -70 -35.5 -111t-115.5 -63q89 -22 126 -62.5t37 -117.5 q0 -233 -340 -233q-162 0 -301 45zM549 -33l563 1483h199l-563 -1483h-199zM1012 160v155l323 463h289v-469h109v-149h-109v-160h-205v160h-407zM1190 309h240v348z" />
<glyph unicode="&#xbf;" horiz-adv-x="997" d="M18 -33q0 104 51.5 179t182.5 161q70 47 98 74.5t37.5 59t9.5 96.5v41h295v-89q0 -59 -3 -90t-10 -60t-28.5 -52t-47.5 -44.5t-79 -58.5q-111 -77 -143.5 -114t-32.5 -88q0 -64 46 -102t124 -38q123 0 309 103l88 -224q-119 -60 -223 -87t-221 -27q-213 0 -333 95.5 t-120 264.5zM354 883q0 83 53.5 136.5t135.5 53.5q83 0 136.5 -53.5t53.5 -138.5q0 -80 -54 -133.5t-136 -53.5t-135.5 53.5t-53.5 135.5z" />
<glyph unicode="&#xc0;" horiz-adv-x="1458" d="M12 0l541 1417h334l559 -1417h-338l-123 338h-534l-121 -338h-318zM338 1853h369l245 -299h-286zM535 578h366l-110 307q-39 109 -74 221q-22 -84 -72 -221z" />
<glyph unicode="&#xc1;" horiz-adv-x="1458" d="M12 0l541 1417h334l559 -1417h-338l-123 338h-534l-121 -338h-318zM530 1554l246 299h369l-330 -299h-285zM535 578h366l-110 307q-39 109 -74 221q-22 -84 -72 -221z" />
<glyph unicode="&#xc2;" horiz-adv-x="1458" d="M12 0l541 1417h334l559 -1417h-338l-123 338h-534l-121 -338h-318zM303 1554l244 299h364l244 -299h-287l-139 177l-139 -177h-287zM535 578h366l-110 307q-39 109 -74 221q-22 -84 -72 -221z" />
<glyph unicode="&#xc3;" horiz-adv-x="1458" d="M12 0l541 1417h334l559 -1417h-338l-123 338h-534l-121 -338h-318zM319 1563q8 129 67 205.5t151 76.5q65 0 204 -45q77 -26 101.5 -32.5t52.5 -6.5q37 0 53.5 18t22.5 64h168q-7 -139 -65 -211.5t-161 -72.5q-44 0 -79 8.5t-193 58.5q-56 16 -80 16q-57 0 -72 -79h-170z M535 578h366l-110 307q-39 109 -74 221q-22 -84 -72 -221z" />
<glyph unicode="&#xc4;" horiz-adv-x="1458" d="M12 0l541 1417h334l559 -1417h-338l-123 338h-534l-121 -338h-318zM326 1710q0 75 50.5 124.5t125.5 49.5q76 0 126 -50t50 -126t-50 -126t-126 -50q-78 0 -127 50t-49 128zM535 578h366l-110 307q-39 109 -74 221q-22 -84 -72 -221zM780 1710q0 75 50.5 124.5 t125.5 49.5q77 0 127 -50t50 -126t-50 -126t-127 -50q-78 0 -127 50t-49 128z" />
<glyph unicode="&#xc5;" horiz-adv-x="1458" d="M12 0l543 1419q-92 76 -92 203q0 115 74.5 188.5t191.5 73.5t191.5 -73.5t74.5 -188.5q0 -139 -106 -213l557 -1409h-338l-123 338h-534l-121 -338h-318zM535 578h366l-110 307q-39 109 -74 221q-31 -106 -72 -221zM621 1622q0 -57 28 -88t80 -31q51 0 80 31.5t29 87.5 t-29 87.5t-80 31.5t-79.5 -31.5t-28.5 -87.5z" />
<glyph unicode="&#xc6;" horiz-adv-x="1939" d="M-90 0l803 1417h1093v-250h-579v-323h551v-250h-551v-344h608v-250h-928v336h-463l-176 -336h-358zM569 575h338v621h-14z" />
<glyph unicode="&#xc7;" horiz-adv-x="1292" d="M94 696q0 349 187 547.5t516 198.5q121 0 221.5 -22.5t226.5 -78.5l-106 -241q-168 92 -324 92q-184 0 -287.5 -127.5t-103.5 -353.5q0 -228 109 -357t301 -129q87 0 159.5 23.5t177.5 85.5l93 -254q-126 -61 -220 -83t-231 -22q-179 0 -307.5 46t-224.5 143 q-187 193 -187 532zM358 -379l240 313h340l-297 -313h-283z" />
<glyph unicode="&#xc8;" horiz-adv-x="1200" d="M168 0v1417h897v-250h-578v-323h549v-250h-549v-344h609v-250h-928zM209 1853h369l245 -299h-286z" />
<glyph unicode="&#xc9;" horiz-adv-x="1200" d="M168 0v1417h897v-250h-578v-323h549v-250h-549v-344h609v-250h-928zM418 1554l246 299h368l-330 -299h-284z" />
<glyph unicode="&#xca;" horiz-adv-x="1200" d="M168 0v1417h897v-250h-578v-323h549v-250h-549v-344h609v-250h-928zM190 1554l244 299h365l243 -299h-286l-140 177l-139 -177h-287z" />
<glyph unicode="&#xcb;" horiz-adv-x="1200" d="M168 0v1417h897v-250h-578v-323h549v-250h-549v-344h609v-250h-928zM209 1710q0 75 50.5 124.5t125.5 49.5q77 0 126.5 -50t49.5 -126t-49.5 -126t-126.5 -50q-78 0 -127 50t-49 128zM664 1710q0 75 50.5 124.5t125.5 49.5q76 0 126 -50t50 -126t-50 -126t-126 -50 q-78 0 -127 50t-49 128z" />
<glyph unicode="&#xcc;" horiz-adv-x="655" d="M-63 1853h368l246 -299h-287zM168 0v1417h319v-1417h-319z" />
<glyph unicode="&#xcd;" horiz-adv-x="655" d="M129 1554l246 299h368l-329 -299h-285zM168 0v1417h319v-1417h-319z" />
<glyph unicode="&#xce;" horiz-adv-x="655" d="M-98 1554l243 299h365l244 -299h-287l-139 177l-140 -177h-286zM168 0v1417h319v-1417h-319z" />
<glyph unicode="&#xcf;" horiz-adv-x="655" d="M-76 1710q0 75 50.5 124.5t125.5 49.5q76 0 126 -50t50 -126t-50 -126t-126 -50q-78 0 -127 50t-49 128zM168 0v1417h319v-1417h-319zM379 1710q0 75 50.5 124.5t125.5 49.5q77 0 126.5 -50t49.5 -126t-49.5 -126t-126.5 -50q-78 0 -127 50t-49 128z" />
<glyph unicode="&#xd0;" horiz-adv-x="1458" d="M-6 633v180h174v604h391q232 0 370.5 -38t237.5 -130q197 -182 197 -542q0 -212 -69 -365t-201 -236q-95 -59 -219 -82.5t-336 -23.5h-371v633h-174zM487 250h62q217 0 323 69q77 53 119.5 156t42.5 236q0 116 -35 214t-96 152q-59 53 -132 71.5t-222 18.5h-62v-354h267 v-180h-267v-383z" />
<glyph unicode="&#xd1;" horiz-adv-x="1540" d="M168 0v1417h352l377 -637q100 -173 174 -334q-6 82 -6 271v700h307v-1417h-346l-354 594q-109 187 -203 379q6 -119 6 -338v-635h-307zM387 1563q8 129 66.5 205.5t150.5 76.5q66 0 205 -45q77 -26 101.5 -32.5t52.5 -6.5q37 0 53 18t22 64h168q-7 -139 -64.5 -211.5 t-160.5 -72.5q-44 0 -79 8.5t-193 58.5q-56 16 -80 16q-57 0 -72 -79h-170z" />
<glyph unicode="&#xd2;" horiz-adv-x="1554" d="M94 717q0 171 55 316t158 243q175 166 471 166q342 0 520 -223q162 -201 162 -510q0 -361 -213 -568q-172 -166 -471 -166q-342 0 -520 224q-162 200 -162 518zM387 1853h369l245 -299h-286zM424 715q0 -227 94.5 -358.5t257.5 -131.5t258.5 130.5t95.5 353.5t-95.5 353 t-258.5 130q-161 0 -256.5 -129.5t-95.5 -347.5z" />
<glyph unicode="&#xd3;" horiz-adv-x="1554" d="M94 717q0 171 55 316t158 243q175 166 471 166q342 0 520 -223q162 -201 162 -510q0 -361 -213 -568q-172 -166 -471 -166q-342 0 -520 224q-162 200 -162 518zM424 715q0 -227 94.5 -358.5t257.5 -131.5t258.5 130.5t95.5 353.5t-95.5 353t-258.5 130 q-161 0 -256.5 -129.5t-95.5 -347.5zM580 1554l245 299h369l-330 -299h-284z" />
<glyph unicode="&#xd4;" horiz-adv-x="1554" d="M94 717q0 171 55 316t158 243q175 166 471 166q342 0 520 -223q162 -201 162 -510q0 -361 -213 -568q-172 -166 -471 -166q-342 0 -520 224q-162 200 -162 518zM350 1554l244 299h364l244 -299h-287l-139 177l-139 -177h-287zM424 715q0 -227 94.5 -358.5t257.5 -131.5 t258.5 130.5t95.5 353.5t-95.5 353t-258.5 130q-161 0 -256.5 -129.5t-95.5 -347.5z" />
<glyph unicode="&#xd5;" horiz-adv-x="1554" d="M94 717q0 171 55 316t158 243q175 166 471 166q342 0 520 -223q162 -201 162 -510q0 -361 -213 -568q-172 -166 -471 -166q-342 0 -520 224q-162 200 -162 518zM367 1563q8 129 66.5 205.5t150.5 76.5q65 0 204 -45q77 -26 101.5 -32.5t52.5 -6.5q37 0 53.5 18t22.5 64 h168q-7 -139 -64.5 -211.5t-160.5 -72.5q-44 0 -80 8.5t-193 58.5q-56 16 -80 16q-56 0 -71 -79h-170zM424 715q0 -227 94.5 -358.5t257.5 -131.5t258.5 130.5t95.5 353.5t-95.5 353t-258.5 130q-161 0 -256.5 -129.5t-95.5 -347.5z" />
<glyph unicode="&#xd6;" horiz-adv-x="1554" d="M94 717q0 171 55 316t158 243q175 166 471 166q342 0 520 -223q162 -201 162 -510q0 -361 -213 -568q-172 -166 -471 -166q-342 0 -520 224q-162 200 -162 518zM375 1710q0 75 50.5 124.5t125.5 49.5q77 0 126.5 -50t49.5 -126t-49.5 -126t-126.5 -50q-78 0 -127 50 t-49 128zM424 715q0 -227 94.5 -358.5t257.5 -131.5t258.5 130.5t95.5 353.5t-95.5 353t-258.5 130q-161 0 -256.5 -129.5t-95.5 -347.5zM829 1710q0 75 51 124.5t126 49.5q76 0 126 -50t50 -126t-50 -126t-126 -50q-78 0 -127.5 50t-49.5 128z" />
<glyph unicode="&#xd7;" d="M160 825l186 187l309 -312l301 301l168 -167l-301 -302l310 -309l-185 -186l-311 311l-301 -301l-168 168l301 301z" />
<glyph unicode="&#xd8;" horiz-adv-x="1554" d="M90 63l146 162q-74 106 -108 221.5t-34 262.5q0 360 213 567q172 166 475 166q254 0 420 -129l137 153l125 -112l-145 -162q74 -108 107.5 -222t33.5 -261q0 -361 -213 -568q-175 -166 -475 -166q-254 0 -420 129l-137 -153zM424 709q0 -123 35 -232l549 617 q-95 98 -232 98q-163 0 -257.5 -130t-94.5 -353zM547 324q96 -99 229 -99q163 0 258.5 130.5t95.5 353.5q0 119 -34 231z" />
<glyph unicode="&#xd9;" horiz-adv-x="1476" d="M156 633v784h319v-823q0 -215 49 -281q31 -41 88.5 -64.5t126.5 -23.5q84 0 149 32.5t93 86.5q31 67 31 250v823h309v-784q0 -227 -17.5 -320.5t-74.5 -165.5q-141 -172 -490 -172q-389 0 -518 211q-39 66 -52 154.5t-13 292.5zM348 1853h369l246 -299h-287z" />
<glyph unicode="&#xda;" horiz-adv-x="1476" d="M156 633v784h319v-823q0 -215 49 -281q31 -41 88.5 -64.5t126.5 -23.5q84 0 149 32.5t93 86.5q31 67 31 250v823h309v-784q0 -227 -17.5 -320.5t-74.5 -165.5q-141 -172 -490 -172q-389 0 -518 211q-39 66 -52 154.5t-13 292.5zM582 1554l245 299h369l-330 -299h-284z " />
<glyph unicode="&#xdb;" horiz-adv-x="1476" d="M156 633v784h319v-823q0 -215 49 -281q31 -41 88.5 -64.5t126.5 -23.5q84 0 149 32.5t93 86.5q31 67 31 250v823h309v-784q0 -227 -17.5 -320.5t-74.5 -165.5q-141 -172 -490 -172q-389 0 -518 211q-39 66 -52 154.5t-13 292.5zM311 1554l244 299h365l243 -299h-286 l-140 177l-139 -177h-287z" />
<glyph unicode="&#xdc;" horiz-adv-x="1476" d="M156 633v784h319v-823q0 -215 49 -281q31 -41 88.5 -64.5t126.5 -23.5q84 0 149 32.5t93 86.5q31 67 31 250v823h309v-784q0 -227 -17.5 -320.5t-74.5 -165.5q-141 -172 -490 -172q-389 0 -518 211q-39 66 -52 154.5t-13 292.5zM336 1710q0 75 50.5 124.5t125.5 49.5 q76 0 126 -50t50 -126t-50 -126t-126 -50q-78 0 -127 50t-49 128zM791 1710q0 75 50.5 124.5t125.5 49.5q77 0 126.5 -50t49.5 -126t-49.5 -126t-126.5 -50q-78 0 -127 50t-49 128z" />
<glyph unicode="&#xdd;" horiz-adv-x="1353" d="M-20 1417h370l234 -375q58 -96 104 -184q44 85 107 186l231 373h348l-534 -835v-582h-320v582zM506 1554l246 299h368l-329 -299h-285z" />
<glyph unicode="&#xde;" horiz-adv-x="1200" d="M168 0v1417h319v-274h80q188 0 282.5 -19t164.5 -73q73 -55 113 -144t40 -198t-38.5 -199t-110.5 -148q-65 -51 -157.5 -73.5t-239.5 -22.5h-134v-266h-319zM487 514h84q81 0 115.5 5t69.5 22q82 43 82 155q0 113 -80 162q-36 20 -74.5 27.5t-112.5 7.5h-84v-379z" />
<glyph unicode="&#xdf;" horiz-adv-x="1290" d="M156 0v958q0 163 17 253.5t60 150.5q116 162 402 162q249 0 371 -113q122 -110 122 -299q0 -105 -40.5 -176.5t-129.5 -122.5q129 -57 188.5 -150t59.5 -239q0 -209 -124 -329t-339 -120q-69 0 -180 17l29 233q44 -8 76 -8q103 0 161 58t58 161q0 110 -64 177t-170 67 q-23 0 -37 -2v225q101 0 147 48.5t46 154.5q0 192 -166 192q-67 0 -107 -31.5t-57 -97.5q-14 -63 -14 -192v-977h-309z" />
<glyph unicode="&#xe0;" horiz-adv-x="1206" d="M66 299q0 95 40.5 171.5t114.5 119.5q102 57 324 57q85 0 186 -8v12q0 97 -61 151t-168 54q-124 0 -293 -84l-59 217q184 84 399 84q264 0 391 -133q60 -61 80 -138t20 -239v-291q6 -216 13 -272h-297l-11 117q-78 -78 -152 -110t-181 -32q-163 0 -254.5 86t-91.5 238z M211 1497h369l245 -299h-286zM385 307q0 -63 37.5 -101t99.5 -38q117 0 209 135v164q-51 4 -100 4q-246 0 -246 -164z" />
<glyph unicode="&#xe1;" horiz-adv-x="1206" d="M66 299q0 95 40.5 171.5t114.5 119.5q102 57 324 57q85 0 186 -8v12q0 97 -61 151t-168 54q-124 0 -293 -84l-59 217q184 84 399 84q264 0 391 -133q60 -61 80 -138t20 -239v-291q6 -216 13 -272h-297l-11 117q-78 -78 -152 -110t-181 -32q-163 0 -254.5 86t-91.5 238z M385 307q0 -63 37.5 -101t99.5 -38q117 0 209 135v164q-51 4 -100 4q-246 0 -246 -164zM406 1198l245 299h369l-330 -299h-284z" />
<glyph unicode="&#xe2;" horiz-adv-x="1206" d="M66 299q0 95 40.5 171.5t114.5 119.5q102 57 324 57q85 0 186 -8v12q0 97 -61 151t-168 54q-124 0 -293 -84l-59 217q184 84 399 84q264 0 391 -133q60 -61 80 -138t20 -239v-291q6 -216 13 -272h-297l-11 117q-78 -78 -152 -110t-181 -32q-163 0 -254.5 86t-91.5 238z M160 1198l243 299h365l244 -299h-287l-139 176l-140 -176h-286zM385 307q0 -63 37.5 -101t99.5 -38q117 0 209 135v164q-51 4 -100 4q-246 0 -246 -164z" />
<glyph unicode="&#xe3;" horiz-adv-x="1206" d="M66 299q0 95 40.5 171.5t114.5 119.5q102 57 324 57q85 0 186 -8v12q0 97 -61 151t-168 54q-124 0 -293 -84l-59 217q184 84 399 84q264 0 391 -133q60 -61 80 -138t20 -239v-291q6 -216 13 -272h-297l-11 117q-78 -78 -152 -110t-181 -32q-163 0 -254.5 86t-91.5 238z M172 1202q8 129 66.5 206t150.5 77q66 0 205 -45q77 -26 101.5 -32.5t52.5 -6.5q37 0 53 18t22 64h168q-8 -140 -65 -212.5t-160 -72.5q-43 0 -77 8.5t-195 59.5q-56 16 -80 16q-57 0 -72 -80h-170zM385 307q0 -63 37.5 -101t99.5 -38q117 0 209 135v164q-51 4 -100 4 q-246 0 -246 -164z" />
<glyph unicode="&#xe4;" horiz-adv-x="1206" d="M66 299q0 95 40.5 171.5t114.5 119.5q102 57 324 57q85 0 186 -8v12q0 97 -61 151t-168 54q-124 0 -293 -84l-59 217q184 84 399 84q264 0 391 -133q60 -61 80 -138t20 -239v-291q6 -216 13 -272h-297l-11 117q-78 -78 -152 -110t-181 -32q-163 0 -254.5 86t-91.5 238z M197 1370q0 72 48 119t120 47q73 0 120 -47t47 -121t-47 -121t-120 -47q-74 0 -121 47.5t-47 122.5zM385 307q0 -63 37.5 -101t99.5 -38q117 0 209 135v164q-51 4 -100 4q-246 0 -246 -164zM651 1370q0 72 48 119t120 47q73 0 120.5 -47t47.5 -121t-47.5 -121t-120.5 -47 q-74 0 -121 47.5t-47 122.5z" />
<glyph unicode="&#xe5;" horiz-adv-x="1206" d="M66 299q0 95 40.5 171.5t114.5 119.5q102 57 324 57q85 0 186 -8v12q0 97 -61 151t-168 54q-124 0 -293 -84l-59 217q184 84 399 84q264 0 391 -133q60 -61 80 -138t20 -239v-291q6 -216 13 -272h-297l-11 117q-78 -78 -152 -110t-181 -32q-163 0 -254.5 86t-91.5 238z M367 1393q0 97 67 162t168 65q103 0 169.5 -65.5t66.5 -165.5t-67 -166t-169 -66q-103 0 -169 66t-66 170zM385 307q0 -63 37.5 -101t99.5 -38q117 0 209 135v164q-51 4 -100 4q-246 0 -246 -164zM512 1389q0 -47 23.5 -73t66.5 -26q42 0 66 26.5t24 72.5t-23.5 72t-66.5 26 q-41 0 -65.5 -26t-24.5 -72z" />
<glyph unicode="&#xe6;" horiz-adv-x="1843" d="M66 299q0 95 40.5 171.5t114.5 119.5q102 57 324 57q69 0 186 -8v12q0 94 -62.5 149.5t-168.5 55.5q-130 0 -291 -84l-59 217q187 84 399 84q245 0 377 -117q72 62 151.5 89.5t184.5 27.5q173 0 292 -72t166 -206q25 -73 34 -148.5t9 -224.5h-723q18 -225 267 -225 q159 0 323 102l107 -219q-197 -105 -455 -105q-171 0 -267.5 40.5t-164.5 140.5q-72 -100 -164 -140.5t-244 -40.5q-187 0 -278 82q-98 89 -98 242zM385 307q0 -62 37.5 -100.5t97.5 -38.5q89 0 150 57t61 140v102q-51 4 -100 4q-246 0 -246 -164zM1040 625h412 q-5 110 -57 170.5t-144 60.5q-93 0 -149 -61.5t-62 -169.5z" />
<glyph unicode="&#xe7;" horiz-adv-x="1021" d="M84 526q0 266 152 418q126 129 364 129q189 0 363 -76l-82 -221q-121 72 -234 72q-118 0 -181 -85t-63 -245q0 -152 69 -232.5t200 -80.5q114 0 223 74l94 -220q-153 -84 -360 -84q-257 0 -401 146t-144 405zM197 -379l239 313h340l-297 -313h-282z" />
<glyph unicode="&#xe8;" horiz-adv-x="1228" d="M84 520q0 255 145 406q135 147 396 147q184 0 306 -70.5t173 -207.5q27 -74 36 -149t9 -224h-741q18 -225 274 -225q165 0 334 102l104 -219q-200 -105 -442 -105q-292 0 -443 138.5t-151 406.5zM223 1497h369l246 -299h-287zM408 625h430q-4 110 -59 170.5t-150 60.5 q-97 0 -156 -62t-65 -169z" />
<glyph unicode="&#xe9;" horiz-adv-x="1228" d="M84 520q0 255 145 406q135 147 396 147q184 0 306 -70.5t173 -207.5q27 -74 36 -149t9 -224h-741q18 -225 274 -225q165 0 334 102l104 -219q-200 -105 -442 -105q-292 0 -443 138.5t-151 406.5zM408 625h430q-4 110 -59 170.5t-150 60.5q-97 0 -156 -62t-65 -169z M416 1198l246 299h368l-330 -299h-284z" />
<glyph unicode="&#xea;" horiz-adv-x="1228" d="M84 520q0 255 145 406q135 147 396 147q184 0 306 -70.5t173 -207.5q27 -74 36 -149t9 -224h-741q18 -225 274 -225q165 0 334 102l104 -219q-200 -105 -442 -105q-292 0 -443 138.5t-151 406.5zM197 1198l243 299h365l244 -299h-287l-139 176l-140 -176h-286zM408 625 h430q-4 110 -59 170.5t-150 60.5q-97 0 -156 -62t-65 -169z" />
<glyph unicode="&#xeb;" horiz-adv-x="1228" d="M84 520q0 255 145 406q135 147 396 147q184 0 306 -70.5t173 -207.5q27 -74 36 -149t9 -224h-741q18 -225 274 -225q165 0 334 102l104 -219q-200 -105 -442 -105q-292 0 -443 138.5t-151 406.5zM231 1370q0 72 48 119t120 47q73 0 120.5 -47t47.5 -121t-47.5 -121 t-120.5 -47q-74 0 -121 47.5t-47 122.5zM408 625h430q-4 110 -59 170.5t-150 60.5q-97 0 -156 -62t-65 -169zM686 1370q0 72 48 119t120 47q74 0 121 -47t47 -121t-47 -121t-121 -47t-121 47.5t-47 122.5z" />
<glyph unicode="&#xec;" horiz-adv-x="624" d="M-78 1497h369l246 -299h-287zM158 0v1049h309v-1049h-309z" />
<glyph unicode="&#xed;" horiz-adv-x="624" d="M115 1198l245 299h369l-330 -299h-284zM158 0v1049h309v-1049h-309z" />
<glyph unicode="&#xee;" horiz-adv-x="624" d="M-115 1198l244 299h365l243 -299h-286l-140 176l-139 -176h-287zM158 0v1049h309v-1049h-309z" />
<glyph unicode="&#xef;" horiz-adv-x="624" d="M-84 1370q0 72 48 119t120 47q74 0 121 -47t47 -121t-47 -121t-121 -47t-121 47.5t-47 122.5zM158 0v1049h309v-1049h-309zM371 1370q0 72 48 119t120 47q73 0 120.5 -47t47.5 -121t-47.5 -121t-120.5 -47q-74 0 -121 47.5t-47 122.5z" />
<glyph unicode="&#xf0;" horiz-adv-x="1210" d="M84 479q0 220 117 348.5t317 128.5q93 0 180 -32q-68 120 -170 206l-299 -135l-49 121l217 98q-105 51 -239 74l55 232q278 -23 485 -170l258 118l56 -118l-199 -90q153 -157 233 -349.5t80 -402.5q0 -259 -136 -396t-394 -137q-239 0 -375.5 134.5t-136.5 369.5z M403 473q0 -127 52.5 -199.5t144.5 -72.5t149.5 74t57.5 194q0 123 -56.5 192.5t-154.5 69.5q-92 0 -142.5 -67t-50.5 -191z" />
<glyph unicode="&#xf1;" horiz-adv-x="1310" d="M154 1049h284l11 -146q94 96 173 133t191 37q211 0 295 -149q27 -45 38 -106.5t11 -168.5v-649h-309v625q0 97 -19 145q-36 74 -124 74q-124 0 -232 -164v-680h-309v659q0 154 -10 390zM272 1202q8 129 66.5 206t150.5 77q66 0 205 -45q77 -26 101.5 -32.5t52.5 -6.5 q37 0 53.5 18t22.5 64h168q-7 -139 -65 -212t-161 -73q-43 0 -77 8.5t-195 59.5q-56 16 -80 16q-57 0 -72 -80h-170z" />
<glyph unicode="&#xf2;" horiz-adv-x="1247" d="M84 530q0 271 164 420q129 123 377 123q277 0 415 -166q123 -147 123 -383q0 -279 -164 -426q-129 -123 -376 -123q-278 0 -416 166q-123 146 -123 389zM233 1497h369l246 -299h-287zM403 528q0 -159 57 -243t163 -84q107 0 164 83t57 240t-56.5 240.5t-162.5 83.5 t-164 -83.5t-58 -236.5z" />
<glyph unicode="&#xf3;" horiz-adv-x="1247" d="M84 530q0 271 164 420q129 123 377 123q277 0 415 -166q123 -147 123 -383q0 -279 -164 -426q-129 -123 -376 -123q-278 0 -416 166q-123 146 -123 389zM403 528q0 -159 57 -243t163 -84q107 0 164 83t57 240t-56.5 240.5t-162.5 83.5t-164 -83.5t-58 -236.5zM426 1198 l246 299h368l-329 -299h-285z" />
<glyph unicode="&#xf4;" horiz-adv-x="1247" d="M84 530q0 271 164 420q129 123 377 123q277 0 415 -166q123 -147 123 -383q0 -279 -164 -426q-129 -123 -376 -123q-278 0 -416 166q-123 146 -123 389zM197 1198l243 299h365l244 -299h-287l-139 176l-140 -176h-286zM403 528q0 -159 57 -243t163 -84q107 0 164 83 t57 240t-56.5 240.5t-162.5 83.5t-164 -83.5t-58 -236.5z" />
<glyph unicode="&#xf5;" horiz-adv-x="1247" d="M84 530q0 271 164 420q129 123 377 123q277 0 415 -166q123 -147 123 -383q0 -279 -164 -426q-129 -123 -376 -123q-278 0 -416 166q-123 146 -123 389zM213 1202q8 129 66.5 206t150.5 77q66 0 205 -45q78 -27 102 -33t51 -6q37 0 53.5 18t22.5 64h168 q-8 -140 -65 -212.5t-160 -72.5q-43 0 -77 8.5t-195 59.5q-56 16 -80 16q-57 0 -72 -80h-170zM403 528q0 -159 57 -243t163 -84q107 0 164 83t57 240t-56.5 240.5t-162.5 83.5t-164 -83.5t-58 -236.5z" />
<glyph unicode="&#xf6;" horiz-adv-x="1247" d="M84 530q0 271 164 420q129 123 377 123q277 0 415 -166q123 -147 123 -383q0 -279 -164 -426q-129 -123 -376 -123q-278 0 -416 166q-123 146 -123 389zM229 1370q0 72 48 119t120 47q73 0 120.5 -47t47.5 -121t-47.5 -121t-120.5 -47q-74 0 -121 47.5t-47 122.5z M403 528q0 -159 57 -243t163 -84q107 0 164 83t57 240t-56.5 240.5t-162.5 83.5t-164 -83.5t-58 -236.5zM684 1370q0 72 48 119t120 47q74 0 121 -47t47 -121t-47 -121t-121 -47t-121 47.5t-47 122.5z" />
<glyph unicode="&#xf7;" d="M123 406v237h1048v-237h-1048zM477 147q0 71 48.5 118.5t121.5 47.5q72 0 120 -48.5t48 -121.5q0 -72 -48 -120t-120 -48q-75 0 -122.5 48t-47.5 124zM477 905q0 72 49 120t121 48q73 0 121.5 -48.5t48.5 -121.5t-48.5 -121.5t-121.5 -48.5q-75 0 -122.5 48.5 t-47.5 123.5z" />
<glyph unicode="&#xf8;" horiz-adv-x="1247" d="M35 59l133 134q-84 140 -84 329q0 263 139.5 407t394.5 144q115 0 195.5 -21.5t149.5 -70.5l124 123l113 -115l-127 -125q48 -76 69 -156t21 -188q0 -275 -164 -422q-129 -123 -376 -123q-216 0 -347 97l-129 -127zM391 524q0 -52 8 -104l375 373q-31 32 -65.5 45.5 t-85.5 13.5q-112 0 -172 -85t-60 -243zM467 262q31 -35 67.5 -50t90.5 -15q112 0 171.5 84.5t59.5 242.5q0 56 -10 115z" />
<glyph unicode="&#xf9;" horiz-adv-x="1300" d="M154 399v650h309v-625q0 -100 18 -145q31 -74 121 -74q117 0 225 164v680h310v-660q0 -125 10 -389h-285l-10 145q-92 -95 -170.5 -132.5t-187.5 -37.5q-209 0 -293 150q-26 47 -36.5 107.5t-10.5 166.5zM260 1497h369l245 -299h-286z" />
<glyph unicode="&#xfa;" horiz-adv-x="1300" d="M154 399v650h309v-625q0 -100 18 -145q31 -74 121 -74q117 0 225 164v680h310v-660q0 -125 10 -389h-285l-10 145q-92 -95 -170.5 -132.5t-187.5 -37.5q-209 0 -293 150q-26 47 -36.5 107.5t-10.5 166.5zM473 1198l246 299h368l-329 -299h-285z" />
<glyph unicode="&#xfb;" horiz-adv-x="1300" d="M154 399v650h309v-625q0 -100 18 -145q31 -74 121 -74q117 0 225 164v680h310v-660q0 -125 10 -389h-285l-10 145q-92 -95 -170.5 -132.5t-187.5 -37.5q-209 0 -293 150q-26 47 -36.5 107.5t-10.5 166.5zM223 1198l244 299h364l244 -299h-287l-139 176l-139 -176h-287z " />
<glyph unicode="&#xfc;" horiz-adv-x="1300" d="M154 399v650h309v-625q0 -100 18 -145q31 -74 121 -74q117 0 225 164v680h310v-660q0 -125 10 -389h-285l-10 145q-92 -95 -170.5 -132.5t-187.5 -37.5q-209 0 -293 150q-26 47 -36.5 107.5t-10.5 166.5zM256 1370q0 72 48 119t120 47q74 0 121 -47t47 -121t-47 -121 t-121 -47t-121 47.5t-47 122.5zM711 1370q0 72 48 119t120 47q73 0 120.5 -47t47.5 -121t-47.5 -121t-120.5 -47q-74 0 -121 47.5t-47 122.5z" />
<glyph unicode="&#xfd;" horiz-adv-x="1181" d="M8 -420l53 234q80 -35 142 -35q75 0 123.5 53.5t111.5 206.5l-430 1010h328l186 -459q46 -107 90 -240q47 144 90 254l168 445h306l-422 -1022q-74 -177 -112 -250t-85 -127q-105 -117 -291 -117q-134 0 -258 47zM422 1198l246 299h368l-329 -299h-285z" />
<glyph unicode="&#xfe;" horiz-adv-x="1282" d="M154 -440v1937h309v-569q69 77 140.5 111t164.5 34q200 0 315 -148.5t115 -406.5q0 -266 -125 -412q-111 -131 -299 -131q-202 0 -311 156v-571h-309zM463 373q95 -172 225 -172q85 0 138 90.5t53 236.5t-55.5 233t-147.5 87q-58 0 -109 -39t-104 -123v-313z" />
<glyph unicode="&#xff;" horiz-adv-x="1181" d="M8 -420l53 234q80 -35 142 -35q75 0 123.5 53.5t111.5 206.5l-430 1010h328l186 -459q46 -107 90 -240q47 144 90 254l168 445h306l-422 -1022q-74 -177 -112 -250t-85 -127q-105 -117 -291 -117q-134 0 -258 47zM197 1370q0 72 48 119t120 47q73 0 120 -47t47 -121 t-47 -121t-120 -47q-74 0 -121 47.5t-47 122.5zM651 1370q0 72 48 119t120 47q73 0 120.5 -47t47.5 -121t-47.5 -121t-120.5 -47q-74 0 -121 47.5t-47 122.5z" />
<glyph unicode="&#x152;" horiz-adv-x="2023" d="M94 709q0 217 77.5 377t223.5 243q94 53 199.5 70.5t329.5 17.5h964v-250h-577v-323h549v-250h-549v-344h608v-250h-985q-148 0 -220.5 6t-142.5 25q-234 58 -355.5 231t-121.5 447zM424 723q0 -270 158 -391q60 -45 139.5 -63.5t212.5 -18.5h57v917h-57 q-170 0 -251 -18.5t-138 -71.5q-121 -115 -121 -354z" />
<glyph unicode="&#x153;" horiz-adv-x="1959" d="M84 524q0 260 135.5 404.5t378.5 144.5q129 0 221 -38t158 -120q72 83 163 120.5t220 37.5q183 0 305.5 -71.5t169.5 -206.5q27 -73 36 -148.5t9 -224.5h-741q18 -225 274 -225q165 0 334 102l104 -219q-194 -105 -444 -105q-159 0 -257 36.5t-177 125.5 q-72 -88 -156.5 -125t-210.5 -37q-249 0 -385.5 144t-136.5 405zM403 528q0 -159 53.5 -243t153.5 -84q101 0 155 83t54 240t-54 240.5t-155 83.5q-99 0 -153 -83.5t-54 -236.5zM1139 625h430q-5 110 -59.5 170.5t-149.5 60.5q-97 0 -156 -62t-65 -169z" />
<glyph unicode="&#x178;" horiz-adv-x="1353" d="M-20 1417h370l234 -375q58 -96 104 -184q44 85 107 186l231 373h348l-534 -835v-582h-320v582zM274 1710q0 75 51 124.5t126 49.5q77 0 126.5 -50t49.5 -126t-49.5 -126t-126.5 -50q-78 0 -127.5 50t-49.5 128zM729 1710q0 75 50.5 124.5t125.5 49.5q77 0 126.5 -50 t49.5 -126t-49.5 -126t-126.5 -50q-78 0 -127 50t-49 128z" />
<glyph unicode="&#x2c6;" horiz-adv-x="1024" d="M86 1198l244 299h364l244 -299h-287l-139 176l-139 -176h-287z" />
<glyph unicode="&#x2dc;" horiz-adv-x="1024" d="M102 1202q8 129 66.5 206t150.5 77q66 0 205 -45q77 -26 101.5 -32.5t52.5 -6.5q37 0 53.5 18t22.5 64h168q-7 -139 -65 -212t-161 -73q-43 0 -77 8.5t-195 59.5q-56 16 -80 16q-57 0 -72 -80h-170z" />
<glyph unicode="&#x2000;" horiz-adv-x="942" />
<glyph unicode="&#x2001;" horiz-adv-x="1884" />
<glyph unicode="&#x2002;" horiz-adv-x="942" />
<glyph unicode="&#x2003;" horiz-adv-x="1884" />
<glyph unicode="&#x2004;" horiz-adv-x="628" />
<glyph unicode="&#x2005;" horiz-adv-x="471" />
<glyph unicode="&#x2006;" horiz-adv-x="314" />
<glyph unicode="&#x2007;" horiz-adv-x="314" />
<glyph unicode="&#x2008;" horiz-adv-x="235" />
<glyph unicode="&#x2009;" horiz-adv-x="376" />
<glyph unicode="&#x200a;" horiz-adv-x="104" />
<glyph unicode="&#x2010;" horiz-adv-x="813" d="M94 461v237h625v-237h-625z" />
<glyph unicode="&#x2011;" horiz-adv-x="813" d="M94 461v237h625v-237h-625z" />
<glyph unicode="&#x2012;" horiz-adv-x="813" d="M94 461v237h625v-237h-625z" />
<glyph unicode="&#x2013;" d="M123 461v237h1048v-237h-1048z" />
<glyph unicode="&#x2014;" horiz-adv-x="2048" d="M-102 461v237h2252v-237h-2252z" />
<glyph unicode="&#x2018;" horiz-adv-x="557" d="M4 918l227 579h291l-178 -579h-340z" />
<glyph unicode="&#x2019;" horiz-adv-x="557" d="M35 918l178 579h340l-229 -579h-289z" />
<glyph unicode="&#x201a;" horiz-adv-x="557" d="M25 -236l178 580h340l-230 -580h-288z" />
<glyph unicode="&#x201c;" horiz-adv-x="1036" d="M12 918l228 579h290l-178 -579h-340zM494 918l229 579h289l-178 -579h-340z" />
<glyph unicode="&#x201d;" horiz-adv-x="1036" d="M25 918l178 579h340l-230 -579h-288zM506 918l178 579h340l-227 -579h-291z" />
<glyph unicode="&#x201e;" horiz-adv-x="1036" d="M6 -236l178 580h340l-229 -580h-289zM487 -236l179 580h340l-228 -580h-291z" />
<glyph unicode="&#x2022;" horiz-adv-x="1024" d="M141 717q0 155 108 261.5t265 106.5q158 0 265.5 -107t107.5 -265t-107.5 -265.5t-265.5 -107.5q-160 0 -266.5 107.5t-106.5 269.5z" />
<glyph unicode="&#x2026;" horiz-adv-x="1941" d="M133 168q0 80 54.5 133t136.5 53t135 -53.5t53 -136.5q0 -82 -53 -135.5t-135 -53.5q-85 0 -138 54t-53 139zM780 168q0 80 54.5 133t136.5 53t135 -53.5t53 -136.5q0 -82 -53 -135.5t-135 -53.5q-85 0 -138 54t-53 139zM1427 168q0 80 54.5 133t136.5 53t135 -53.5 t53 -136.5q0 -82 -53 -135.5t-135 -53.5q-85 0 -138 54t-53 139z" />
<glyph unicode="&#x202f;" horiz-adv-x="376" />
<glyph unicode="&#x2039;" horiz-adv-x="749" d="M59 530l406 494l201 -154l-271 -340l271 -340l-201 -155z" />
<glyph unicode="&#x203a;" horiz-adv-x="749" d="M84 186l270 342l-270 340l201 156l405 -496l-405 -493z" />
<glyph unicode="&#x205f;" horiz-adv-x="471" />
<glyph unicode="&#x20ac;" d="M10 481l53 150h140q-2 20 -2 51q0 43 2 72h-193l53 147h158q54 259 219 400t414 141q246 0 432 -92l-84 -236q-85 46 -155.5 66t-149.5 20q-152 0 -241 -73.5t-121 -225.5h591l-51 -147h-553l-2 -19v-28q0 -29 6 -76h506l-53 -150h-424q44 -138 131 -201t236 -63 q151 0 299 80l65 -244q-184 -78 -416 -78q-260 0 -429 131.5t-220 374.5h-211z" />
<glyph unicode="&#x2122;" horiz-adv-x="1867" d="M12 1247v170h680v-170h-229v-606h-221v606h-230zM780 641v776h295l187 -530l184 530h295v-776h-207v391q0 76 10 215q-44 -162 -76 -248l-131 -358h-153l-131 358q-32 86 -76 248q10 -139 10 -215v-391h-207z" />
<glyph unicode="&#xe000;" horiz-adv-x="1044" d="M0 0v1044h1044v-1044h-1044z" />
</font>
</defs>
</svg>
